{
  "source": "C:\\Users\\Peter\\Desktop\\stuff\\MIUN\\quantitative_research\\video_compression\\videos\\UVG\\Bosphorus_1920x1080_120fps_420_8bit_YUV.y4m",
  "output": "C:\\Users\\Peter\\Desktop\\stuff\\MIUN\\quantitative_research\\video_compression\\compressed_videos\\UVG\\h264\\1\\Bosphorus_1920x1080_120fps_420_8bit_YUV_h264.mp4",
  "codec": "h264",
  "ok": "[yuv4mpegpipe @ 0000017e60ba5e00] Stream #0: not enough frames to estimate rate; consider increasing probesize\nInput #0, yuv4mpegpipe, from 'C:\\Users\\Peter\\Desktop\\stuff\\MIUN\\quantitative_research\\video_compression\\videos\\UVG\\Bosphorus_1920x1080_120fps_420_8bit_YUV.y4m':\n  Duration: 00:00:05.00, start: 0.000000, bitrate: 2985989 kb/s\n  Stream #0:0: Video: rawvideo (I420 / 0x30323449), yuv420p(progressive), 1920x1080, 120 fps, 120 tbr, 120 tbn\n[out#0/mp4 @ 0000017e60baa600] Codec AVOption b:a (set bitrate (in bits/s)) has not been used for any stream. The most likely reason is either wrong type (e.g. a video option with no video streams) or that it is a private option of some decoder which was not actually used for any stream.\nStream mapping:\n  Stream #0:0 -> #0:0 (rawvideo (native) -> h264 (libx264))\nPress [q] to stop, [?] for help\n[libx264 @ 0000017e60baca80] using cpu capabilities: MMX2 SSE2Fast SSSE3 SSE4.2 AVX FMA3 BMI2 AVX2\n[libx264 @ 0000017e60baca80] profile High, level 5.1, 4:2:0, 8-bit\n[libx264 @ 0000017e60baca80] 264 - core 165 r3222 b35605a - H.264/MPEG-4 AVC codec - Copyleft 2003-2025 - http://www.videolan.org/x264.html - options: cabac=1 ref=5 deblock=1:0:0 analyse=0x3:0x113 me=hex subme=8 psy=1 psy_rd=1.00:0.00 mixed_ref=1 me_range=16 chroma_me=1 trellis=2 8x8dct=1 cqm=0 deadzone=21,11 fast_pskip=1 chroma_qp_offset=-2 threads=18 lookahead_threads=3 sliced_threads=0 nr=0 decimate=1 interlaced=0 bluray_compat=0 constrained_intra=0 bframes=3 b_pyramid=2 b_adapt=1 b_bias=0 direct=3 weightb=1 open_gop=0 weightp=2 keyint=250 keyint_min=25 scenecut=40 intra_refresh=0 rc_lookahead=50 rc=cbr mbtree=1 bitrate=1000 ratetol=1.0 qcomp=0.60 qpmin=0 qpmax=69 qpstep=4 vbv_maxrate=1000 vbv_bufsize=1000 nal_hrd=none filler=0 ip_ratio=1.40 aq=1:1.00\nOutput #0, mp4, to 'C:\\Users\\Peter\\Desktop\\stuff\\MIUN\\quantitative_research\\video_compression\\compressed_videos\\UVG\\h264\\1\\Bosphorus_1920x1080_120fps_420_8bit_YUV_h264.mp4':\n  Metadata:\n    encoder         : Lavf62.3.100\n  Stream #0:0: Video: h264 (avc1 / 0x31637661), yuv420p(tv, progressive), 1920x1080, q=2-31, 1000 kb/s, 120 fps, 15360 tbn\n    Metadata:\n      encoder         : Lavc62.11.100 libx264\n    Side data:\n      cpb: bitrate max/min/avg: 1000000/0/1000000 buffer size: 1000000 vbv_delay: N/A\nframe=    0 fps=0.0 q=0.0 size=       0KiB time=N/A bitrate=N/A speed=N/A elapsed=0:00:00.51    \nframe=    0 fps=0.0 q=0.0 size=       0KiB time=N/A bitrate=N/A speed=N/A elapsed=0:00:01.04    \nframe=    0 fps=0.0 q=0.0 size=       0KiB time=N/A bitrate=N/A speed=N/A elapsed=0:00:01.61    \nframe=    4 fps=1.8 q=56.0 size=       0KiB time=N/A bitrate=N/A speed=N/A elapsed=0:00:02.28    \nframe=   32 fps= 11 q=50.0 size=       0KiB time=00:00:00.18 bitrate=   2.1kbits/s speed=0.0623x elapsed=0:00:02.94    \nframe=   50 fps= 14 q=49.0 size=       0KiB time=00:00:00.40 bitrate=   1.0kbits/s speed=0.109x elapsed=0:00:03.67    \nframe=   64 fps= 15 q=49.0 size=       0KiB time=00:00:00.48 bitrate=   0.8kbits/s speed=0.115x elapsed=0:00:04.20    \nframe=   88 fps= 18 q=49.0 size=       0KiB time=00:00:00.68 bitrate=   0.6kbits/s speed=0.138x elapsed=0:00:04.95    \nframe=  112 fps= 20 q=49.0 size=       0KiB time=00:00:00.85 bitrate=   0.5kbits/s speed=0.152x elapsed=0:00:05.60    \nframe=  136 fps= 21 q=49.0 size=       0KiB time=00:00:01.05 bitrate=   0.4kbits/s speed=0.165x elapsed=0:00:06.37    \nframe=  156 fps= 22 q=49.0 size=       0KiB time=00:00:01.25 bitrate=   0.3kbits/s speed=0.176x elapsed=0:00:07.09    \nframe=  172 fps= 22 q=49.0 size=       0KiB time=00:00:01.38 bitrate=   0.3kbits/s speed=0.178x elapsed=0:00:07.76    \nframe=  188 fps= 22 q=48.0 size=       0KiB time=00:00:01.55 bitrate=   0.2kbits/s speed=0.183x elapsed=0:00:08.48    \nframe=  212 fps= 23 q=48.0 size=       0KiB time=00:00:01.71 bitrate=   0.2kbits/s speed=0.19x elapsed=0:00:09.05    \nframe=  233 fps= 24 q=48.0 size=       0KiB time=00:00:01.88 bitrate=   0.2kbits/s speed=0.193x elapsed=0:00:09.76    \nframe=  238 fps= 22 q=48.0 size=       0KiB time=00:00:01.92 bitrate=   0.2kbits/s speed=0.182x elapsed=0:00:10.58    \nframe=  262 fps= 23 q=49.0 size=       0KiB time=00:00:02.10 bitrate=   0.2kbits/s speed=0.185x elapsed=0:00:11.37    \nframe=  268 fps= 22 q=49.0 size=       0KiB time=00:00:02.21 bitrate=   0.2kbits/s speed=0.182x elapsed=0:00:12.21    \nframe=  294 fps= 23 q=49.0 size=     256KiB time=00:00:02.36 bitrate= 886.3kbits/s speed=0.183x elapsed=0:00:12.89    \nframe=  326 fps= 24 q=49.0 size=     256KiB time=00:00:02.63 bitrate= 796.5kbits/s speed=0.193x elapsed=0:00:13.65    \nframe=  340 fps= 23 q=49.0 size=     256KiB time=00:00:02.81 bitrate= 744.7kbits/s speed=0.194x elapsed=0:00:14.48    \nframe=  358 fps= 24 q=49.0 size=     256KiB time=00:00:02.90 bitrate= 723.3kbits/s speed=0.191x elapsed=0:00:15.22    \nframe=  378 fps= 23 q=49.0 size=     256KiB time=00:00:03.10 bitrate= 676.6kbits/s speed=0.193x elapsed=0:00:16.09    \nframe=  406 fps= 24 q=48.0 size=     256KiB time=00:00:03.33 bitrate= 629.3kbits/s speed=0.198x elapsed=0:00:16.83    \nframe=  426 fps= 24 q=48.0 size=     256KiB time=00:00:03.50 bitrate= 599.3kbits/s speed=0.199x elapsed=0:00:17.57    \nframe=  446 fps= 24 q=48.0 size=     256KiB time=00:00:03.66 bitrate= 572.1kbits/s speed=0.201x elapsed=0:00:18.25    \nframe=  474 fps= 25 q=48.0 size=     256KiB time=00:00:03.83 bitrate= 547.2kbits/s speed=0.202x elapsed=0:00:18.95    \nframe=  483 fps= 24 q=48.0 size=     256KiB time=00:00:04.00 bitrate= 523.3kbits/s speed=0.202x elapsed=0:00:19.81    \nframe=  492 fps= 24 q=48.0 size=     256KiB time=00:00:04.08 bitrate= 513.7kbits/s speed=0.198x elapsed=0:00:20.57    \nframe=  528 fps= 25 q=48.0 size=     256KiB time=00:00:04.25 bitrate= 493.5kbits/s speed= 0.2x elapsed=0:00:21.24    \nframe=  550 fps= 25 q=48.0 size=     256KiB time=00:00:04.56 bitrate= 459.3kbits/s speed=0.206x elapsed=0:00:22.18    \nframe=  594 fps= 26 q=-1.0 size=     512KiB time=00:00:04.73 bitrate= 886.2kbits/s speed=0.208x elapsed=0:00:22.80    \n[mp4 @ 0000017e60bab700] Starting second pass: moving the moov atom to the beginning of the file\n[out#0/mp4 @ 0000017e60baa600] video:563KiB audio:0KiB subtitle:0KiB other streams:0KiB global headers:0KiB muxing overhead: 1.394751%\nframe=  600 fps= 26 q=-1.0 Lsize=     571KiB time=00:00:04.98 bitrate= 938.7kbits/s speed=0.213x elapsed=0:00:23.36    \n[libx264 @ 0000017e60baca80] frame I:3     Avg QP:43.65  size:  9990\n[libx264 @ 0000017e60baca80] frame P:151   Avg QP:44.44  size:  1979\n[libx264 @ 0000017e60baca80] frame B:446   Avg QP:43.18  size:   554\n[libx264 @ 0000017e60baca80] consecutive B-frames:  0.8%  0.0%  0.5% 98.7%\n[libx264 @ 0000017e60baca80] mb I  I16..4: 43.6% 56.1%  0.3%\n[libx264 @ 0000017e60baca80] mb P  I16..4:  0.8%  0.3%  0.0%  P16..4: 12.2%  0.3%  0.5%  0.0%  0.0%    skip:85.9%\n[libx264 @ 0000017e60baca80] mb B  I16..4:  0.0%  0.0%  0.0%  B16..8:  9.8%  0.0%  0.0%  direct: 0.0%  skip:90.2%  L0: 8.6% L1:91.4% BI: 0.0%\n[libx264 @ 0000017e60baca80] 8x8 transform intra:45.3% inter:98.0%\n[libx264 @ 0000017e60baca80] direct mvs  spatial:97.8% temporal:2.2%\n[libx264 @ 0000017e60baca80] coded y,uvDC,uvAC intra: 5.3% 14.7% 0.8% inter: 0.1% 0.3% 0.0%\n[libx264 @ 0000017e60baca80] i16 v,h,dc,p: 17% 62%  3% 18%\n[libx264 @ 0000017e60baca80] i8 v,h,dc,ddl,ddr,vr,hd,vl,hu: 11% 19% 51%  2%  3%  2%  5%  2%  6%\n[libx264 @ 0000017e60baca80] i4 v,h,dc,ddl,ddr,vr,hd,vl,hu:  8% 15% 11%  7%  9%  8% 11%  8% 22%\n[libx264 @ 0000017e60baca80] i8c dc,h,v,p: 78% 20%  1%  0%\n[libx264 @ 0000017e60baca80] Weighted P-Frames: Y:0.0% UV:0.0%\n[libx264 @ 0000017e60baca80] ref P L0: 62.5%  5.4% 18.8%  4.6%  8.7%\n[libx264 @ 0000017e60baca80] ref B L0: 83.9% 12.5%  2.6%  0.9%\n[libx264 @ 0000017e60baca80] ref B L1: 95.2%  4.8%\n[libx264 @ 0000017e60baca80] kb/s:921.44\n",
  "seconds": 24.37986993789673,
  "probe_out": {}
}